name E:\Dropbox\SEL\BOX\Experiment\240124_SUB1_PJH\c3d\XYZ\UpDown_TrcMot\15_10_trial1_D1_ExtLoadAPP3.mot
datacolumns 37
datarows 13
range 8.985 8.997
endheader

time	    ground_force1_vx	    ground_force1_vy	    ground_force1_vz	    ground_force1_px	    ground_force1_py	    ground_force1_pz	    ground_torque1_x	    ground_torque1_y	    ground_torque1_z	    ground_force2_vx	    ground_force2_vy	    ground_force2_vz	    ground_force2_px	    ground_force2_py	    ground_force2_pz	    ground_torque2_x	    ground_torque2_y	    ground_torque2_z	      hand_force3_vx	      hand_force3_vy	      hand_force3_vz	      hand_force3_px	      hand_force3_py	      hand_force3_pz	      hand_torque3_x	      hand_torque3_y	      hand_torque3_z	      hand_force4_vx	      hand_force4_vy	      hand_force4_vz	      hand_force4_px	      hand_force4_py	      hand_force4_pz	      hand_torque4_x	      hand_torque4_y	      hand_torque4_z	
8.985	         37.77613015	        409.51254452	        -20.47866616	          0.22922719	          0.00000000	          0.29286162	          0.00000000	         -4.25316483	          0.00000000	        -38.86687902	        404.26888308	        -13.91549951	          0.57935485	          0.00000000	          0.26590220	          0.00000000	          3.55320820	          0.00000000	          0.00000000	          0.00000000	          0.00000000	          0.14678765	          0.85283519	          0.02928794	          0.00000000	          0.00000000	          0.00000000	          0.00000000	          0.00000000	          0.00000000	          0.65878520	          0.87431382	          0.02063593	          0.00000000	          0.00000000	          0.00000000	
8.986	         37.68910235	        409.41226193	        -20.46101016	          0.22923118	          0.00000000	          0.29284928	          0.00000000	         -4.24485340	          0.00000000	        -38.91160950	        404.42356371	        -13.94012094	          0.57937428	          0.00000000	          0.26595765	          0.00000000	          3.56205940	          0.00000000	          0.00000000	          0.00000000	          0.00000000	          0.14679565	          0.85209473	          0.02949682	          0.00000000	          0.00000000	          0.00000000	          0.00000000	          0.00000000	          0.00000000	          0.65877014	          0.87358453	          0.02084325	          0.00000000	          0.00000000	          0.00000000	
8.987	         37.60226780	        409.31993114	        -20.44387342	          0.22923559	          0.00000000	          0.29283786	          0.00000000	         -4.23664660	          0.00000000	        -38.95577487	        404.57562265	        -13.96785381	          0.57939335	          0.00000000	          0.26601396	          0.00000000	          3.57060231	          0.00000000	          0.00000000	          0.00000000	          0.00000000	          0.14680367	          0.85135209	          0.02970328	          0.00000000	          0.00000000	          0.00000000	          0.00000000	          0.00000000	          0.00000000	          0.65875504	          0.87285351	          0.02104851	          0.00000000	          0.00000000	          0.00000000	
8.988	         37.51562546	        409.23503734	        -20.42712760	          0.22924040	          0.00000000	          0.29282731	          0.00000000	         -4.22854600	          0.00000000	        -38.99942562	        404.72505194	        -13.99864813	          0.57941206	          0.00000000	          0.26607114	          0.00000000	          3.57882928	          0.00000000	          0.00000000	          0.00000000	          0.00000000	          0.14681166	          0.85060724	          0.02990735	          0.00000000	          0.00000000	          0.00000000	          0.00000000	          0.00000000	          0.00000000	          0.65873987	          0.87212074	          0.02125173	          0.00000000	          0.00000000	          0.00000000	
8.989	         37.42917296	        409.15703497	        -20.41064229	          0.22924561	          0.00000000	          0.29281755	          0.00000000	         -4.22055291	          0.00000000	        -39.04261336	        404.87186863	        -14.03244642	          0.57943041	          0.00000000	          0.26612917	          0.00000000	          3.58673346	          0.00000000	          0.00000000	          0.00000000	          0.00000000	          0.14681961	          0.84986020	          0.03010904	          0.00000000	          0.00000000	          0.00000000	          0.00000000	          0.00000000	          0.00000000	          0.65872460	          0.87138620	          0.02145291	          0.00000000	          0.00000000	          0.00000000	
8.99	         37.34290682	        409.08534923	        -20.39428570	          0.22925119	          0.00000000	          0.29280850	          0.00000000	         -4.21266843	          0.00000000	        -39.08539056	        405.01611454	        -14.06918408	          0.57944841	          0.00000000	          0.26618805	          0.00000000	          3.59430883	          0.00000000	          0.00000000	          0.00000000	          0.00000000	          0.14682748	          0.84911095	          0.03030836	          0.00000000	          0.00000000	          0.00000000	          0.00000000	          0.00000000	          0.00000000	          0.65870921	          0.87064986	          0.02165206	          0.00000000	          0.00000000	          0.00000000	
8.991	         37.25682270	        409.01937783	        -20.37792550	          0.22925713	          0.00000000	          0.29280010	          0.00000000	         -4.20489342	          0.00000000	        -39.12781032	        405.15785603	        -14.10878962	          0.57946606	          0.00000000	          0.26624777	          0.00000000	          3.60155020	          0.00000000	          0.00000000	          0.00000000	          0.00000000	          0.14683526	          0.84835950	          0.03050532	          0.00000000	          0.00000000	          0.00000000	          0.00000000	          0.00000000	          0.00000000	          0.65869366	          0.86991169	          0.02184917	          0.00000000	          0.00000000	          0.00000000	
8.992	         37.17091564	        408.95849281	        -20.36142952	          0.22926340	          0.00000000	          0.29279227	          0.00000000	         -4.19722851	          0.00000000	        -39.16992604	        405.29718358	        -14.15118504	          0.57948336	          0.00000000	          0.26630833	          0.00000000	          3.60845323	          0.00000000	          0.00000000	          0.00000000	          0.00000000	          0.14684292	          0.84760583	          0.03069993	          0.00000000	          0.00000000	          0.00000000	          0.00000000	          0.00000000	          0.00000000	          0.65867793	          0.86917167	          0.02204425	          0.00000000	          0.00000000	          0.00000000	
8.993	         37.08518024	        408.90204258	        -20.34466654	          0.22926999	          0.00000000	          0.29278495	          0.00000000	         -4.18967413	          0.00000000	        -39.21179125	        405.43421136	        -14.19628616	          0.57950031	          0.00000000	          0.26636972	          0.00000000	          3.61501446	          0.00000000	          0.00000000	          0.00000000	          0.00000000	          0.14685043	          0.84684993	          0.03089221	          0.00000000	          0.00000000	          0.00000000	          0.00000000	          0.00000000	          0.00000000	          0.65866200	          0.86842978	          0.02223730	          0.00000000	          0.00000000	          0.00000000	
8.994	         36.99961098	        408.84935412	        -20.32750701	          0.22927687	          0.00000000	          0.29277807	          0.00000000	         -4.18223048	          0.00000000	        -39.25345928	        405.56907664	        -14.24400293	          0.57951692	          0.00000000	          0.26643193	          0.00000000	          3.62123130	          0.00000000	          0.00000000	          0.00000000	          0.00000000	          0.14685776	          0.84609181	          0.03108218	          0.00000000	          0.00000000	          0.00000000	          0.00000000	          0.00000000	          0.00000000	          0.65864583	          0.86768599	          0.02242833	          0.00000000	          0.00000000	          0.00000000	
8.995	         36.91420239	        408.79973522	        -20.30982379	          0.22928404	          0.00000000	          0.29277154	          0.00000000	         -4.17489754	          0.00000000	        -39.29498302	        405.70193918	        -14.29423981	          0.57953318	          0.00000000	          0.26649495	          0.00000000	          3.62710206	          0.00000000	          0.00000000	          0.00000000	          0.00000000	          0.14686491	          0.84533144	          0.03126984	          0.00000000	          0.00000000	          0.00000000	          0.00000000	          0.00000000	          0.00000000	          0.65862940	          0.86694029	          0.02261732	          0.00000000	          0.00000000	          0.00000000	
8.996	         36.82894932	        408.75247703	        -20.29149281	          0.22929146	          0.00000000	          0.29276532	          0.00000000	         -4.16767508	          0.00000000	        -39.33641466	        405.83298047	        -14.34689607	          0.57954910	          0.00000000	          0.26655877	          0.00000000	          3.63262595	          0.00000000	          0.00000000	          0.00000000	          0.00000000	          0.14687185	          0.84456881	          0.03145523	          0.00000000	          0.00000000	          0.00000000	          0.00000000	          0.00000000	          0.00000000	          0.65861268	          0.86619265	          0.02280429	          0.00000000	          0.00000000	          0.00000000	
8.997	         36.74384720	        408.70685656	        -20.27239376	          0.22929911	          0.00000000	          0.29275932	          0.00000000	         -4.16056268	          0.00000000	        -39.37780543	        405.96240291	        -14.40186619	          0.57956467	          0.00000000	          0.26662338	          0.00000000	          3.63780307	          0.00000000	          0.00000000	          0.00000000	          0.00000000	          0.14687855	          0.84380392	          0.03163834	          0.00000000	          0.00000000	          0.00000000	          0.00000000	          0.00000000	          0.00000000	          0.65859563	          0.86544307	          0.02298922	          0.00000000	          0.00000000	          0.00000000	
